<?xml version="1.0" standalone="no"?>
<!DOCTYPE svg PUBLIC "-//W3C//DTD SVG 20010904//EN"
 "http://www.w3.org/TR/2001/REC-SVG-20010904/DTD/svg10.dtd">
<svg version="1.0" xmlns="http://www.w3.org/2000/svg"
 width="512.000000pt" height="512.000000pt" viewBox="0 0 512.000000 512.000000"
 preserveAspectRatio="xMidYMid meet">
<metadata>
Created by potrace 1.11, written by Peter Selinger 2001-2013
</metadata>
<g transform="translate(0.000000,512.000000) scale(0.100000,-0.100000)"
fill="#000000" stroke="none">
<path d="M0 2560 l0 -2560 2560 0 2560 0 0 2560 0 2560 -2560 0 -2560 0 0
-2560z m3645 2065 c368 -44 576 -104 672 -193 96 -89 110 -264 27 -347 -17
-18 -82 -60 -142 -95 -197 -112 -225 -150 -241 -326 -16 -173 -30 -593 -41
-1209 -12 -694 -24 -816 -101 -1047 -89 -265 -228 -446 -464 -605 -309 -208
-804 -321 -1245 -284 -567 48 -1046 244 -1268 520 -67 83 -146 241 -173 346
-62 240 -19 494 111 656 135 168 294 242 515 241 188 -1 340 -56 463 -168 155
-140 207 -307 163 -521 -12 -55 -21 -121 -21 -145 1 -174 214 -262 407 -168
111 55 197 176 246 346 22 78 22 84 20 694 -1 601 -20 1177 -44 1330 -12 81
-59 179 -103 218 -32 28 -88 50 -218 87 -148 41 -211 207 -138 360 18 38 48
79 73 101 126 110 432 193 847 228 100 9 533 -4 655 -19z"/>
</g>
</svg>
